<mxfile host="app.diagrams.net" modified="2022-01-25T05:23:29.374Z" agent="5.0 (Windows NT 10.0; Win64; x64) AppleWebKit/537.36 (KHTML, like Gecko) Chrome/97.0.4692.99 Safari/537.36" etag="5lBAsXlhlus3YbTDV9Sa" version="16.4.6" type="github">
  <diagram name="Page-1" id="e7e014a7-5840-1c2e-5031-d8a46d1fe8dd">
    <mxGraphModel dx="1673" dy="829" grid="1" gridSize="10" guides="1" tooltips="1" connect="1" arrows="1" fold="1" page="1" pageScale="1" pageWidth="1169" pageHeight="826" background="none" math="0" shadow="0">
      <root>
        <mxCell id="0" />
        <mxCell id="1" parent="0" />
        <mxCell id="02cLAiRu2KNLrM10NU80-41" value="" style="ellipse;html=1;shape=startState;fillColor=#000000;strokeColor=#ff0000;" vertex="1" parent="1">
          <mxGeometry x="140" y="175" width="30" height="30" as="geometry" />
        </mxCell>
        <mxCell id="02cLAiRu2KNLrM10NU80-42" value="" style="edgeStyle=orthogonalEdgeStyle;html=1;verticalAlign=bottom;endArrow=open;endSize=8;strokeColor=#ff0000;rounded=0;entryX=0;entryY=0.5;entryDx=0;entryDy=0;" edge="1" source="02cLAiRu2KNLrM10NU80-41" parent="1" target="02cLAiRu2KNLrM10NU80-44">
          <mxGeometry relative="1" as="geometry">
            <mxPoint x="300" y="85" as="targetPoint" />
            <Array as="points">
              <mxPoint x="230" y="190" />
              <mxPoint x="230" y="190" />
            </Array>
          </mxGeometry>
        </mxCell>
        <mxCell id="02cLAiRu2KNLrM10NU80-48" style="edgeStyle=orthogonalEdgeStyle;rounded=0;orthogonalLoop=1;jettySize=auto;html=1;" edge="1" parent="1" source="02cLAiRu2KNLrM10NU80-44" target="02cLAiRu2KNLrM10NU80-45">
          <mxGeometry relative="1" as="geometry" />
        </mxCell>
        <mxCell id="02cLAiRu2KNLrM10NU80-49" style="edgeStyle=orthogonalEdgeStyle;rounded=0;orthogonalLoop=1;jettySize=auto;html=1;entryX=0;entryY=0.5;entryDx=0;entryDy=0;" edge="1" parent="1" source="02cLAiRu2KNLrM10NU80-44" target="02cLAiRu2KNLrM10NU80-47">
          <mxGeometry relative="1" as="geometry">
            <Array as="points">
              <mxPoint x="355" y="180" />
            </Array>
          </mxGeometry>
        </mxCell>
        <mxCell id="02cLAiRu2KNLrM10NU80-44" value="Página Portada" style="rounded=1;whiteSpace=wrap;html=1;" vertex="1" parent="1">
          <mxGeometry x="290" y="160" width="110" height="60" as="geometry" />
        </mxCell>
        <mxCell id="02cLAiRu2KNLrM10NU80-60" style="edgeStyle=orthogonalEdgeStyle;rounded=0;orthogonalLoop=1;jettySize=auto;html=1;entryX=0;entryY=0.5;entryDx=0;entryDy=0;" edge="1" parent="1" source="02cLAiRu2KNLrM10NU80-45" target="02cLAiRu2KNLrM10NU80-59">
          <mxGeometry relative="1" as="geometry">
            <Array as="points">
              <mxPoint x="560" y="280" />
            </Array>
          </mxGeometry>
        </mxCell>
        <mxCell id="02cLAiRu2KNLrM10NU80-45" value="Iniciar sesión&amp;nbsp;" style="rounded=1;whiteSpace=wrap;html=1;" vertex="1" parent="1">
          <mxGeometry x="500" y="160" width="120" height="60" as="geometry" />
        </mxCell>
        <mxCell id="02cLAiRu2KNLrM10NU80-53" style="edgeStyle=orthogonalEdgeStyle;rounded=0;orthogonalLoop=1;jettySize=auto;html=1;entryX=0.5;entryY=0;entryDx=0;entryDy=0;" edge="1" parent="1" source="02cLAiRu2KNLrM10NU80-47" target="02cLAiRu2KNLrM10NU80-52">
          <mxGeometry relative="1" as="geometry" />
        </mxCell>
        <mxCell id="02cLAiRu2KNLrM10NU80-47" value="Registro" style="rounded=1;whiteSpace=wrap;html=1;" vertex="1" parent="1">
          <mxGeometry x="500" y="40" width="120" height="60" as="geometry" />
        </mxCell>
        <mxCell id="02cLAiRu2KNLrM10NU80-55" style="edgeStyle=orthogonalEdgeStyle;rounded=0;orthogonalLoop=1;jettySize=auto;html=1;entryX=0.5;entryY=0;entryDx=0;entryDy=0;" edge="1" parent="1" source="02cLAiRu2KNLrM10NU80-50" target="02cLAiRu2KNLrM10NU80-47">
          <mxGeometry relative="1" as="geometry">
            <Array as="points">
              <mxPoint x="1060" y="20" />
              <mxPoint x="560" y="20" />
            </Array>
          </mxGeometry>
        </mxCell>
        <mxCell id="02cLAiRu2KNLrM10NU80-65" style="edgeStyle=orthogonalEdgeStyle;rounded=0;orthogonalLoop=1;jettySize=auto;html=1;exitX=0.25;exitY=1;exitDx=0;exitDy=0;entryX=1;entryY=0.5;entryDx=0;entryDy=0;" edge="1" parent="1" source="02cLAiRu2KNLrM10NU80-50" target="02cLAiRu2KNLrM10NU80-45">
          <mxGeometry relative="1" as="geometry" />
        </mxCell>
        <mxCell id="02cLAiRu2KNLrM10NU80-50" value="Notificar error&amp;nbsp;" style="rounded=1;whiteSpace=wrap;html=1;" vertex="1" parent="1">
          <mxGeometry x="910" y="95" width="120" height="60" as="geometry" />
        </mxCell>
        <mxCell id="02cLAiRu2KNLrM10NU80-54" style="edgeStyle=orthogonalEdgeStyle;rounded=0;orthogonalLoop=1;jettySize=auto;html=1;" edge="1" parent="1" source="02cLAiRu2KNLrM10NU80-52" target="02cLAiRu2KNLrM10NU80-50">
          <mxGeometry relative="1" as="geometry">
            <Array as="points">
              <mxPoint x="860" y="130" />
              <mxPoint x="860" y="130" />
            </Array>
          </mxGeometry>
        </mxCell>
        <mxCell id="02cLAiRu2KNLrM10NU80-56" style="edgeStyle=orthogonalEdgeStyle;rounded=0;orthogonalLoop=1;jettySize=auto;html=1;entryX=0.5;entryY=0;entryDx=0;entryDy=0;" edge="1" parent="1" source="02cLAiRu2KNLrM10NU80-52" target="02cLAiRu2KNLrM10NU80-45">
          <mxGeometry relative="1" as="geometry">
            <Array as="points">
              <mxPoint x="560" y="130" />
            </Array>
          </mxGeometry>
        </mxCell>
        <mxCell id="02cLAiRu2KNLrM10NU80-52" value="Validación&amp;nbsp;" style="rhombus;whiteSpace=wrap;html=1;" vertex="1" parent="1">
          <mxGeometry x="750" y="90" width="80" height="80" as="geometry" />
        </mxCell>
        <mxCell id="02cLAiRu2KNLrM10NU80-58" value="Datos validos" style="text;html=1;align=center;verticalAlign=middle;resizable=0;points=[];autosize=1;strokeColor=none;fillColor=none;" vertex="1" parent="1">
          <mxGeometry x="640" y="110" width="90" height="20" as="geometry" />
        </mxCell>
        <mxCell id="02cLAiRu2KNLrM10NU80-64" style="edgeStyle=orthogonalEdgeStyle;rounded=0;orthogonalLoop=1;jettySize=auto;html=1;entryX=0.883;entryY=0.983;entryDx=0;entryDy=0;entryPerimeter=0;" edge="1" parent="1" source="02cLAiRu2KNLrM10NU80-59" target="02cLAiRu2KNLrM10NU80-50">
          <mxGeometry relative="1" as="geometry" />
        </mxCell>
        <mxCell id="02cLAiRu2KNLrM10NU80-70" style="edgeStyle=orthogonalEdgeStyle;rounded=0;orthogonalLoop=1;jettySize=auto;html=1;entryX=0.5;entryY=0;entryDx=0;entryDy=0;" edge="1" parent="1" source="02cLAiRu2KNLrM10NU80-59" target="02cLAiRu2KNLrM10NU80-69">
          <mxGeometry relative="1" as="geometry" />
        </mxCell>
        <mxCell id="02cLAiRu2KNLrM10NU80-59" value="Validación&amp;nbsp;" style="rhombus;whiteSpace=wrap;html=1;" vertex="1" parent="1">
          <mxGeometry x="750" y="240" width="80" height="80" as="geometry" />
        </mxCell>
        <mxCell id="02cLAiRu2KNLrM10NU80-61" value="Envió de datos" style="text;html=1;align=center;verticalAlign=middle;resizable=0;points=[];autosize=1;strokeColor=none;fillColor=none;" vertex="1" parent="1">
          <mxGeometry x="630" y="250" width="90" height="20" as="geometry" />
        </mxCell>
        <mxCell id="02cLAiRu2KNLrM10NU80-62" value="Envió de datos" style="text;html=1;align=center;verticalAlign=middle;resizable=0;points=[];autosize=1;strokeColor=none;fillColor=none;" vertex="1" parent="1">
          <mxGeometry x="650" y="50" width="90" height="20" as="geometry" />
        </mxCell>
        <mxCell id="02cLAiRu2KNLrM10NU80-63" value="Datos erróneos&amp;nbsp;" style="text;html=1;align=center;verticalAlign=middle;resizable=0;points=[];autosize=1;strokeColor=none;fillColor=none;" vertex="1" parent="1">
          <mxGeometry x="815" y="100" width="100" height="20" as="geometry" />
        </mxCell>
        <mxCell id="02cLAiRu2KNLrM10NU80-66" value="Retorno a inicio de sesión&amp;nbsp;" style="text;html=1;align=center;verticalAlign=middle;resizable=0;points=[];autosize=1;strokeColor=none;fillColor=none;" vertex="1" parent="1">
          <mxGeometry x="715" y="190" width="160" height="20" as="geometry" />
        </mxCell>
        <mxCell id="02cLAiRu2KNLrM10NU80-67" value="Retorno a registro" style="text;html=1;align=center;verticalAlign=middle;resizable=0;points=[];autosize=1;strokeColor=none;fillColor=none;" vertex="1" parent="1">
          <mxGeometry x="780" y="20" width="110" height="20" as="geometry" />
        </mxCell>
        <mxCell id="02cLAiRu2KNLrM10NU80-68" value="Datos erróneos&amp;nbsp;" style="text;html=1;align=center;verticalAlign=middle;resizable=0;points=[];autosize=1;strokeColor=none;fillColor=none;" vertex="1" parent="1">
          <mxGeometry x="875" y="250" width="100" height="20" as="geometry" />
        </mxCell>
        <mxCell id="02cLAiRu2KNLrM10NU80-85" style="edgeStyle=orthogonalEdgeStyle;rounded=0;orthogonalLoop=1;jettySize=auto;html=1;entryX=1;entryY=0.5;entryDx=0;entryDy=0;" edge="1" parent="1" source="02cLAiRu2KNLrM10NU80-69" target="02cLAiRu2KNLrM10NU80-95">
          <mxGeometry relative="1" as="geometry">
            <mxPoint x="405" y="310" as="targetPoint" />
          </mxGeometry>
        </mxCell>
        <mxCell id="02cLAiRu2KNLrM10NU80-168" style="edgeStyle=orthogonalEdgeStyle;rounded=0;orthogonalLoop=1;jettySize=auto;html=1;entryX=0;entryY=0.5;entryDx=0;entryDy=0;" edge="1" parent="1" source="02cLAiRu2KNLrM10NU80-69" target="02cLAiRu2KNLrM10NU80-167">
          <mxGeometry relative="1" as="geometry" />
        </mxCell>
        <mxCell id="02cLAiRu2KNLrM10NU80-69" value="Rol" style="rhombus;whiteSpace=wrap;html=1;" vertex="1" parent="1">
          <mxGeometry x="750" y="350" width="80" height="80" as="geometry" />
        </mxCell>
        <mxCell id="02cLAiRu2KNLrM10NU80-71" value="Datos validos" style="text;html=1;align=center;verticalAlign=middle;resizable=0;points=[];autosize=1;strokeColor=none;fillColor=none;" vertex="1" parent="1">
          <mxGeometry x="790" y="340" width="90" height="20" as="geometry" />
        </mxCell>
        <mxCell id="02cLAiRu2KNLrM10NU80-127" style="edgeStyle=orthogonalEdgeStyle;rounded=0;orthogonalLoop=1;jettySize=auto;html=1;exitX=0;exitY=0.5;exitDx=0;exitDy=0;entryX=0;entryY=0.5;entryDx=0;entryDy=0;entryPerimeter=0;" edge="1" parent="1" source="02cLAiRu2KNLrM10NU80-73" target="02cLAiRu2KNLrM10NU80-120">
          <mxGeometry relative="1" as="geometry">
            <mxPoint x="425" y="750" as="targetPoint" />
          </mxGeometry>
        </mxCell>
        <mxCell id="02cLAiRu2KNLrM10NU80-73" value="Gestión de escuadrones" style="rounded=1;whiteSpace=wrap;html=1;" vertex="1" parent="1">
          <mxGeometry x="460" y="540" width="120" height="60" as="geometry" />
        </mxCell>
        <mxCell id="02cLAiRu2KNLrM10NU80-115" style="edgeStyle=orthogonalEdgeStyle;rounded=0;orthogonalLoop=1;jettySize=auto;html=1;entryX=0.2;entryY=0.525;entryDx=0;entryDy=0;entryPerimeter=0;" edge="1" parent="1" source="02cLAiRu2KNLrM10NU80-74" target="02cLAiRu2KNLrM10NU80-105">
          <mxGeometry relative="1" as="geometry" />
        </mxCell>
        <mxCell id="02cLAiRu2KNLrM10NU80-74" value="Visualizador de juegos y escuadrones disponibles" style="rounded=1;whiteSpace=wrap;html=1;" vertex="1" parent="1">
          <mxGeometry x="240" y="540" width="120" height="60" as="geometry" />
        </mxCell>
        <mxCell id="02cLAiRu2KNLrM10NU80-116" style="edgeStyle=orthogonalEdgeStyle;rounded=0;orthogonalLoop=1;jettySize=auto;html=1;exitX=0.25;exitY=1;exitDx=0;exitDy=0;entryX=1;entryY=0.5;entryDx=0;entryDy=0;" edge="1" parent="1" source="02cLAiRu2KNLrM10NU80-75" target="02cLAiRu2KNLrM10NU80-76">
          <mxGeometry relative="1" as="geometry" />
        </mxCell>
        <mxCell id="02cLAiRu2KNLrM10NU80-117" style="edgeStyle=orthogonalEdgeStyle;rounded=0;orthogonalLoop=1;jettySize=auto;html=1;exitX=0.5;exitY=1;exitDx=0;exitDy=0;entryX=0;entryY=0.25;entryDx=0;entryDy=0;" edge="1" parent="1" source="02cLAiRu2KNLrM10NU80-75" target="02cLAiRu2KNLrM10NU80-74">
          <mxGeometry relative="1" as="geometry" />
        </mxCell>
        <mxCell id="02cLAiRu2KNLrM10NU80-146" style="edgeStyle=orthogonalEdgeStyle;rounded=0;orthogonalLoop=1;jettySize=auto;html=1;exitX=0.5;exitY=1;exitDx=0;exitDy=0;entryX=0.25;entryY=0;entryDx=0;entryDy=0;" edge="1" parent="1" source="02cLAiRu2KNLrM10NU80-75" target="02cLAiRu2KNLrM10NU80-73">
          <mxGeometry relative="1" as="geometry">
            <Array as="points">
              <mxPoint x="220" y="520" />
              <mxPoint x="490" y="520" />
            </Array>
          </mxGeometry>
        </mxCell>
        <mxCell id="02cLAiRu2KNLrM10NU80-149" style="edgeStyle=orthogonalEdgeStyle;rounded=0;orthogonalLoop=1;jettySize=auto;html=1;exitX=0.75;exitY=1;exitDx=0;exitDy=0;entryX=0;entryY=0;entryDx=0;entryDy=0;" edge="1" parent="1" source="02cLAiRu2KNLrM10NU80-75" target="02cLAiRu2KNLrM10NU80-89">
          <mxGeometry relative="1" as="geometry">
            <Array as="points">
              <mxPoint x="250" y="510" />
              <mxPoint x="720" y="510" />
            </Array>
          </mxGeometry>
        </mxCell>
        <mxCell id="02cLAiRu2KNLrM10NU80-166" style="edgeStyle=orthogonalEdgeStyle;rounded=0;orthogonalLoop=1;jettySize=auto;html=1;" edge="1" parent="1" source="02cLAiRu2KNLrM10NU80-75" target="02cLAiRu2KNLrM10NU80-165">
          <mxGeometry relative="1" as="geometry">
            <Array as="points">
              <mxPoint x="270" y="500" />
              <mxPoint x="940" y="500" />
              <mxPoint x="940" y="856" />
            </Array>
          </mxGeometry>
        </mxCell>
        <mxCell id="02cLAiRu2KNLrM10NU80-203" style="edgeStyle=orthogonalEdgeStyle;rounded=0;orthogonalLoop=1;jettySize=auto;html=1;entryX=1;entryY=1;entryDx=0;entryDy=0;" edge="1" parent="1" source="02cLAiRu2KNLrM10NU80-75" target="02cLAiRu2KNLrM10NU80-201">
          <mxGeometry relative="1" as="geometry" />
        </mxCell>
        <mxCell id="02cLAiRu2KNLrM10NU80-75" value="Usuario liberado" style="rounded=1;whiteSpace=wrap;html=1;" vertex="1" parent="1">
          <mxGeometry x="160" y="400" width="120" height="60" as="geometry" />
        </mxCell>
        <mxCell id="02cLAiRu2KNLrM10NU80-83" style="edgeStyle=orthogonalEdgeStyle;rounded=0;orthogonalLoop=1;jettySize=auto;html=1;exitX=0.5;exitY=1;exitDx=0;exitDy=0;entryX=0.5;entryY=0;entryDx=0;entryDy=0;" edge="1" parent="1" source="02cLAiRu2KNLrM10NU80-76" target="02cLAiRu2KNLrM10NU80-80">
          <mxGeometry relative="1" as="geometry" />
        </mxCell>
        <mxCell id="02cLAiRu2KNLrM10NU80-76" value="Gestion de usuario&amp;nbsp;" style="rounded=1;whiteSpace=wrap;html=1;" vertex="1" parent="1">
          <mxGeometry x="30" y="600" width="120" height="60" as="geometry" />
        </mxCell>
        <mxCell id="02cLAiRu2KNLrM10NU80-91" style="edgeStyle=orthogonalEdgeStyle;rounded=0;orthogonalLoop=1;jettySize=auto;html=1;" edge="1" parent="1" source="02cLAiRu2KNLrM10NU80-80" target="02cLAiRu2KNLrM10NU80-45">
          <mxGeometry relative="1" as="geometry">
            <Array as="points">
              <mxPoint x="20" y="735" />
              <mxPoint x="20" y="250" />
              <mxPoint x="520" y="250" />
            </Array>
          </mxGeometry>
        </mxCell>
        <mxCell id="02cLAiRu2KNLrM10NU80-80" value="Datos Personales" style="rounded=1;whiteSpace=wrap;html=1;" vertex="1" parent="1">
          <mxGeometry x="40" y="720" width="100" height="30" as="geometry" />
        </mxCell>
        <mxCell id="02cLAiRu2KNLrM10NU80-125" style="edgeStyle=orthogonalEdgeStyle;rounded=0;orthogonalLoop=1;jettySize=auto;html=1;exitX=1;exitY=0;exitDx=0;exitDy=0;entryX=-0.8;entryY=0.25;entryDx=0;entryDy=0;entryPerimeter=0;" edge="1" parent="1" source="02cLAiRu2KNLrM10NU80-86" target="02cLAiRu2KNLrM10NU80-111">
          <mxGeometry relative="1" as="geometry">
            <mxPoint x="380" y="630" as="targetPoint" />
          </mxGeometry>
        </mxCell>
        <mxCell id="02cLAiRu2KNLrM10NU80-86" value="Unir a juego" style="rounded=1;whiteSpace=wrap;html=1;" vertex="1" parent="1">
          <mxGeometry x="250" y="630" width="100" height="30" as="geometry" />
        </mxCell>
        <mxCell id="02cLAiRu2KNLrM10NU80-148" style="edgeStyle=orthogonalEdgeStyle;rounded=0;orthogonalLoop=1;jettySize=auto;html=1;exitX=0;exitY=0.5;exitDx=0;exitDy=0;entryX=0.106;entryY=0.601;entryDx=0;entryDy=0;entryPerimeter=0;" edge="1" parent="1" source="02cLAiRu2KNLrM10NU80-89" target="02cLAiRu2KNLrM10NU80-147">
          <mxGeometry relative="1" as="geometry" />
        </mxCell>
        <mxCell id="02cLAiRu2KNLrM10NU80-89" value="Gestión de juegos" style="rounded=1;whiteSpace=wrap;html=1;" vertex="1" parent="1">
          <mxGeometry x="720" y="540" width="120" height="60" as="geometry" />
        </mxCell>
        <mxCell id="02cLAiRu2KNLrM10NU80-113" style="edgeStyle=orthogonalEdgeStyle;rounded=0;orthogonalLoop=1;jettySize=auto;html=1;entryX=-0.2;entryY=0.888;entryDx=0;entryDy=0;entryPerimeter=0;" edge="1" parent="1" source="02cLAiRu2KNLrM10NU80-90" target="02cLAiRu2KNLrM10NU80-111">
          <mxGeometry relative="1" as="geometry">
            <Array as="points">
              <mxPoint x="360" y="681" />
              <mxPoint x="360" y="681" />
            </Array>
          </mxGeometry>
        </mxCell>
        <mxCell id="02cLAiRu2KNLrM10NU80-90" value="Unir a escuadron" style="rounded=1;whiteSpace=wrap;html=1;" vertex="1" parent="1">
          <mxGeometry x="250" y="670" width="100" height="30" as="geometry" />
        </mxCell>
        <mxCell id="02cLAiRu2KNLrM10NU80-100" style="edgeStyle=orthogonalEdgeStyle;rounded=0;orthogonalLoop=1;jettySize=auto;html=1;entryX=1.008;entryY=0.367;entryDx=0;entryDy=0;entryPerimeter=0;" edge="1" parent="1" source="02cLAiRu2KNLrM10NU80-95" target="02cLAiRu2KNLrM10NU80-98">
          <mxGeometry relative="1" as="geometry" />
        </mxCell>
        <mxCell id="02cLAiRu2KNLrM10NU80-103" style="edgeStyle=orthogonalEdgeStyle;rounded=0;orthogonalLoop=1;jettySize=auto;html=1;exitX=0.5;exitY=1;exitDx=0;exitDy=0;" edge="1" parent="1" source="02cLAiRu2KNLrM10NU80-95" target="02cLAiRu2KNLrM10NU80-75">
          <mxGeometry relative="1" as="geometry">
            <Array as="points">
              <mxPoint x="345" y="390" />
              <mxPoint x="220" y="390" />
            </Array>
          </mxGeometry>
        </mxCell>
        <mxCell id="02cLAiRu2KNLrM10NU80-95" value="" style="rhombus;whiteSpace=wrap;html=1;" vertex="1" parent="1">
          <mxGeometry x="310" y="265" width="80" height="80" as="geometry" />
        </mxCell>
        <mxCell id="02cLAiRu2KNLrM10NU80-97" value="¿Datos personales &lt;br&gt;cargados?" style="text;html=1;align=center;verticalAlign=middle;resizable=0;points=[];autosize=1;strokeColor=none;fillColor=none;" vertex="1" parent="1">
          <mxGeometry x="390" y="290" width="120" height="30" as="geometry" />
        </mxCell>
        <mxCell id="02cLAiRu2KNLrM10NU80-101" style="edgeStyle=orthogonalEdgeStyle;rounded=0;orthogonalLoop=1;jettySize=auto;html=1;entryX=0;entryY=0.75;entryDx=0;entryDy=0;" edge="1" parent="1" source="02cLAiRu2KNLrM10NU80-98" target="02cLAiRu2KNLrM10NU80-44">
          <mxGeometry relative="1" as="geometry">
            <Array as="points">
              <mxPoint x="90" y="270" />
              <mxPoint x="220" y="270" />
              <mxPoint x="220" y="205" />
            </Array>
          </mxGeometry>
        </mxCell>
        <mxCell id="02cLAiRu2KNLrM10NU80-199" style="edgeStyle=orthogonalEdgeStyle;rounded=0;orthogonalLoop=1;jettySize=auto;html=1;exitX=0.25;exitY=1;exitDx=0;exitDy=0;entryX=0.25;entryY=0;entryDx=0;entryDy=0;" edge="1" parent="1" source="02cLAiRu2KNLrM10NU80-98" target="02cLAiRu2KNLrM10NU80-76">
          <mxGeometry relative="1" as="geometry" />
        </mxCell>
        <mxCell id="02cLAiRu2KNLrM10NU80-210" style="edgeStyle=orthogonalEdgeStyle;rounded=0;orthogonalLoop=1;jettySize=auto;html=1;entryX=0.5;entryY=0;entryDx=0;entryDy=0;" edge="1" parent="1" source="02cLAiRu2KNLrM10NU80-98" target="02cLAiRu2KNLrM10NU80-200">
          <mxGeometry relative="1" as="geometry" />
        </mxCell>
        <mxCell id="02cLAiRu2KNLrM10NU80-98" value="Usuario restringido" style="rounded=1;whiteSpace=wrap;html=1;" vertex="1" parent="1">
          <mxGeometry x="30" y="300" width="120" height="60" as="geometry" />
        </mxCell>
        <mxCell id="02cLAiRu2KNLrM10NU80-102" value="No" style="text;html=1;align=center;verticalAlign=middle;resizable=0;points=[];autosize=1;strokeColor=none;fillColor=none;" vertex="1" parent="1">
          <mxGeometry x="265" y="300" width="30" height="20" as="geometry" />
        </mxCell>
        <mxCell id="02cLAiRu2KNLrM10NU80-104" value="Si" style="text;html=1;align=center;verticalAlign=middle;resizable=0;points=[];autosize=1;strokeColor=none;fillColor=none;" vertex="1" parent="1">
          <mxGeometry x="350" y="340" width="30" height="20" as="geometry" />
        </mxCell>
        <mxCell id="02cLAiRu2KNLrM10NU80-109" style="edgeStyle=orthogonalEdgeStyle;rounded=0;orthogonalLoop=1;jettySize=auto;html=1;" edge="1" parent="1" source="02cLAiRu2KNLrM10NU80-105">
          <mxGeometry relative="1" as="geometry">
            <mxPoint x="250" y="650" as="targetPoint" />
          </mxGeometry>
        </mxCell>
        <mxCell id="02cLAiRu2KNLrM10NU80-110" style="edgeStyle=orthogonalEdgeStyle;rounded=0;orthogonalLoop=1;jettySize=auto;html=1;entryX=0;entryY=0.25;entryDx=0;entryDy=0;" edge="1" parent="1" source="02cLAiRu2KNLrM10NU80-105" target="02cLAiRu2KNLrM10NU80-90">
          <mxGeometry relative="1" as="geometry">
            <Array as="points">
              <mxPoint x="230" y="678" />
            </Array>
          </mxGeometry>
        </mxCell>
        <mxCell id="02cLAiRu2KNLrM10NU80-105" value="" style="html=1;points=[];perimeter=orthogonalPerimeter;fillColor=#000000;strokeColor=none;" vertex="1" parent="1">
          <mxGeometry x="210" y="610" width="5" height="80" as="geometry" />
        </mxCell>
        <mxCell id="02cLAiRu2KNLrM10NU80-114" style="edgeStyle=orthogonalEdgeStyle;rounded=0;orthogonalLoop=1;jettySize=auto;html=1;" edge="1" parent="1" source="02cLAiRu2KNLrM10NU80-111" target="02cLAiRu2KNLrM10NU80-74">
          <mxGeometry relative="1" as="geometry">
            <Array as="points">
              <mxPoint x="388" y="580" />
            </Array>
          </mxGeometry>
        </mxCell>
        <mxCell id="02cLAiRu2KNLrM10NU80-111" value="" style="html=1;points=[];perimeter=orthogonalPerimeter;fillColor=#000000;strokeColor=none;" vertex="1" parent="1">
          <mxGeometry x="385" y="610" width="5" height="80" as="geometry" />
        </mxCell>
        <mxCell id="02cLAiRu2KNLrM10NU80-140" style="edgeStyle=orthogonalEdgeStyle;rounded=0;orthogonalLoop=1;jettySize=auto;html=1;entryX=-0.129;entryY=0.418;entryDx=0;entryDy=0;entryPerimeter=0;" edge="1" parent="1" source="02cLAiRu2KNLrM10NU80-118" target="02cLAiRu2KNLrM10NU80-137">
          <mxGeometry relative="1" as="geometry" />
        </mxCell>
        <mxCell id="02cLAiRu2KNLrM10NU80-118" value="Modificar Escuadrón" style="rounded=1;whiteSpace=wrap;html=1;" vertex="1" parent="1">
          <mxGeometry x="485" y="690" width="100" height="30" as="geometry" />
        </mxCell>
        <mxCell id="02cLAiRu2KNLrM10NU80-139" style="edgeStyle=orthogonalEdgeStyle;rounded=0;orthogonalLoop=1;jettySize=auto;html=1;entryX=0.106;entryY=0.197;entryDx=0;entryDy=0;entryPerimeter=0;" edge="1" parent="1" source="02cLAiRu2KNLrM10NU80-119" target="02cLAiRu2KNLrM10NU80-137">
          <mxGeometry relative="1" as="geometry" />
        </mxCell>
        <mxCell id="02cLAiRu2KNLrM10NU80-119" value="Crear Escuadrón" style="rounded=1;whiteSpace=wrap;html=1;" vertex="1" parent="1">
          <mxGeometry x="485" y="640" width="100" height="30" as="geometry" />
        </mxCell>
        <mxCell id="02cLAiRu2KNLrM10NU80-121" style="edgeStyle=orthogonalEdgeStyle;rounded=0;orthogonalLoop=1;jettySize=auto;html=1;entryX=0;entryY=0.5;entryDx=0;entryDy=0;" edge="1" parent="1" source="02cLAiRu2KNLrM10NU80-120" target="02cLAiRu2KNLrM10NU80-119">
          <mxGeometry relative="1" as="geometry" />
        </mxCell>
        <mxCell id="02cLAiRu2KNLrM10NU80-126" style="edgeStyle=orthogonalEdgeStyle;rounded=0;orthogonalLoop=1;jettySize=auto;html=1;entryX=0;entryY=0.5;entryDx=0;entryDy=0;" edge="1" parent="1" source="02cLAiRu2KNLrM10NU80-120" target="02cLAiRu2KNLrM10NU80-118">
          <mxGeometry relative="1" as="geometry" />
        </mxCell>
        <mxCell id="02cLAiRu2KNLrM10NU80-134" style="edgeStyle=orthogonalEdgeStyle;rounded=0;orthogonalLoop=1;jettySize=auto;html=1;entryX=0;entryY=0.5;entryDx=0;entryDy=0;" edge="1" parent="1" source="02cLAiRu2KNLrM10NU80-120" target="02cLAiRu2KNLrM10NU80-128">
          <mxGeometry relative="1" as="geometry" />
        </mxCell>
        <mxCell id="02cLAiRu2KNLrM10NU80-135" style="edgeStyle=orthogonalEdgeStyle;rounded=0;orthogonalLoop=1;jettySize=auto;html=1;entryX=0;entryY=0.5;entryDx=0;entryDy=0;" edge="1" parent="1" source="02cLAiRu2KNLrM10NU80-120" target="02cLAiRu2KNLrM10NU80-129">
          <mxGeometry relative="1" as="geometry" />
        </mxCell>
        <mxCell id="02cLAiRu2KNLrM10NU80-136" style="edgeStyle=orthogonalEdgeStyle;rounded=0;orthogonalLoop=1;jettySize=auto;html=1;entryX=0;entryY=0.75;entryDx=0;entryDy=0;" edge="1" parent="1" source="02cLAiRu2KNLrM10NU80-120" target="02cLAiRu2KNLrM10NU80-133">
          <mxGeometry relative="1" as="geometry" />
        </mxCell>
        <mxCell id="02cLAiRu2KNLrM10NU80-120" value="" style="html=1;points=[];perimeter=orthogonalPerimeter;fillColor=#000000;strokeColor=none;" vertex="1" parent="1">
          <mxGeometry x="435" y="640" width="5" height="80" as="geometry" />
        </mxCell>
        <mxCell id="02cLAiRu2KNLrM10NU80-141" style="edgeStyle=orthogonalEdgeStyle;rounded=0;orthogonalLoop=1;jettySize=auto;html=1;entryX=-0.365;entryY=0.624;entryDx=0;entryDy=0;entryPerimeter=0;" edge="1" parent="1" source="02cLAiRu2KNLrM10NU80-128" target="02cLAiRu2KNLrM10NU80-137">
          <mxGeometry relative="1" as="geometry">
            <Array as="points">
              <mxPoint x="615" y="755" />
              <mxPoint x="615" y="690" />
            </Array>
          </mxGeometry>
        </mxCell>
        <mxCell id="02cLAiRu2KNLrM10NU80-128" value="Eliminar Escuadrón" style="rounded=1;whiteSpace=wrap;html=1;" vertex="1" parent="1">
          <mxGeometry x="485" y="740" width="100" height="30" as="geometry" />
        </mxCell>
        <mxCell id="02cLAiRu2KNLrM10NU80-142" style="edgeStyle=orthogonalEdgeStyle;rounded=0;orthogonalLoop=1;jettySize=auto;html=1;entryX=0.106;entryY=0.888;entryDx=0;entryDy=0;entryPerimeter=0;" edge="1" parent="1" source="02cLAiRu2KNLrM10NU80-129" target="02cLAiRu2KNLrM10NU80-137">
          <mxGeometry relative="1" as="geometry" />
        </mxCell>
        <mxCell id="02cLAiRu2KNLrM10NU80-129" value="Ver escuadrones pertenecientes" style="rounded=1;whiteSpace=wrap;html=1;" vertex="1" parent="1">
          <mxGeometry x="485" y="790" width="100" height="30" as="geometry" />
        </mxCell>
        <mxCell id="02cLAiRu2KNLrM10NU80-143" style="edgeStyle=orthogonalEdgeStyle;rounded=0;orthogonalLoop=1;jettySize=auto;html=1;entryX=0;entryY=1;entryDx=0;entryDy=0;entryPerimeter=0;" edge="1" parent="1" source="02cLAiRu2KNLrM10NU80-133" target="02cLAiRu2KNLrM10NU80-137">
          <mxGeometry relative="1" as="geometry">
            <mxPoint x="645" y="740" as="targetPoint" />
            <Array as="points">
              <mxPoint x="645" y="870" />
            </Array>
          </mxGeometry>
        </mxCell>
        <mxCell id="02cLAiRu2KNLrM10NU80-133" value="Solicitudes de ingreso a escuadrón&lt;br&gt;" style="rounded=1;whiteSpace=wrap;html=1;" vertex="1" parent="1">
          <mxGeometry x="485" y="840" width="100" height="60" as="geometry" />
        </mxCell>
        <mxCell id="02cLAiRu2KNLrM10NU80-144" style="edgeStyle=orthogonalEdgeStyle;rounded=0;orthogonalLoop=1;jettySize=auto;html=1;entryX=1;entryY=0.5;entryDx=0;entryDy=0;" edge="1" parent="1" source="02cLAiRu2KNLrM10NU80-137" target="02cLAiRu2KNLrM10NU80-73">
          <mxGeometry relative="1" as="geometry">
            <Array as="points">
              <mxPoint x="648" y="570" />
            </Array>
          </mxGeometry>
        </mxCell>
        <mxCell id="02cLAiRu2KNLrM10NU80-137" value="" style="html=1;points=[];perimeter=orthogonalPerimeter;fillColor=#000000;strokeColor=none;" vertex="1" parent="1">
          <mxGeometry x="645" y="640" width="5" height="80" as="geometry" />
        </mxCell>
        <mxCell id="02cLAiRu2KNLrM10NU80-156" style="edgeStyle=orthogonalEdgeStyle;rounded=0;orthogonalLoop=1;jettySize=auto;html=1;entryX=0;entryY=0.25;entryDx=0;entryDy=0;" edge="1" parent="1" source="02cLAiRu2KNLrM10NU80-147" target="02cLAiRu2KNLrM10NU80-151">
          <mxGeometry relative="1" as="geometry" />
        </mxCell>
        <mxCell id="02cLAiRu2KNLrM10NU80-157" style="edgeStyle=orthogonalEdgeStyle;rounded=0;orthogonalLoop=1;jettySize=auto;html=1;entryX=0;entryY=0.5;entryDx=0;entryDy=0;" edge="1" parent="1" source="02cLAiRu2KNLrM10NU80-147" target="02cLAiRu2KNLrM10NU80-152">
          <mxGeometry relative="1" as="geometry" />
        </mxCell>
        <mxCell id="02cLAiRu2KNLrM10NU80-158" style="edgeStyle=orthogonalEdgeStyle;rounded=0;orthogonalLoop=1;jettySize=auto;html=1;entryX=0;entryY=0.5;entryDx=0;entryDy=0;" edge="1" parent="1" source="02cLAiRu2KNLrM10NU80-147" target="02cLAiRu2KNLrM10NU80-153">
          <mxGeometry relative="1" as="geometry" />
        </mxCell>
        <mxCell id="02cLAiRu2KNLrM10NU80-147" value="" style="html=1;points=[];perimeter=orthogonalPerimeter;fillColor=#000000;strokeColor=none;" vertex="1" parent="1">
          <mxGeometry x="692.5" y="660" width="5" height="80" as="geometry" />
        </mxCell>
        <mxCell id="02cLAiRu2KNLrM10NU80-160" style="edgeStyle=orthogonalEdgeStyle;rounded=0;orthogonalLoop=1;jettySize=auto;html=1;entryX=0;entryY=0.438;entryDx=0;entryDy=0;entryPerimeter=0;" edge="1" parent="1" source="02cLAiRu2KNLrM10NU80-151" target="02cLAiRu2KNLrM10NU80-159">
          <mxGeometry relative="1" as="geometry" />
        </mxCell>
        <mxCell id="02cLAiRu2KNLrM10NU80-151" value="Crear juego" style="rounded=1;whiteSpace=wrap;html=1;" vertex="1" parent="1">
          <mxGeometry x="740" y="640" width="100" height="30" as="geometry" />
        </mxCell>
        <mxCell id="02cLAiRu2KNLrM10NU80-162" style="edgeStyle=orthogonalEdgeStyle;rounded=0;orthogonalLoop=1;jettySize=auto;html=1;entryX=-0.365;entryY=0.62;entryDx=0;entryDy=0;entryPerimeter=0;" edge="1" parent="1" source="02cLAiRu2KNLrM10NU80-152" target="02cLAiRu2KNLrM10NU80-159">
          <mxGeometry relative="1" as="geometry">
            <mxPoint x="899.9999999999995" y="715" as="targetPoint" />
          </mxGeometry>
        </mxCell>
        <mxCell id="02cLAiRu2KNLrM10NU80-152" value="Editar Juego" style="rounded=1;whiteSpace=wrap;html=1;" vertex="1" parent="1">
          <mxGeometry x="740" y="700" width="100" height="30" as="geometry" />
        </mxCell>
        <mxCell id="02cLAiRu2KNLrM10NU80-163" style="edgeStyle=orthogonalEdgeStyle;rounded=0;orthogonalLoop=1;jettySize=auto;html=1;" edge="1" parent="1" source="02cLAiRu2KNLrM10NU80-153" target="02cLAiRu2KNLrM10NU80-159">
          <mxGeometry relative="1" as="geometry" />
        </mxCell>
        <mxCell id="02cLAiRu2KNLrM10NU80-153" value="Eliminar juego" style="rounded=1;whiteSpace=wrap;html=1;" vertex="1" parent="1">
          <mxGeometry x="740" y="760" width="100" height="30" as="geometry" />
        </mxCell>
        <mxCell id="02cLAiRu2KNLrM10NU80-164" style="edgeStyle=orthogonalEdgeStyle;rounded=0;orthogonalLoop=1;jettySize=auto;html=1;entryX=1;entryY=0.5;entryDx=0;entryDy=0;" edge="1" parent="1" source="02cLAiRu2KNLrM10NU80-159" target="02cLAiRu2KNLrM10NU80-89">
          <mxGeometry relative="1" as="geometry">
            <Array as="points">
              <mxPoint x="903" y="570" />
            </Array>
          </mxGeometry>
        </mxCell>
        <mxCell id="02cLAiRu2KNLrM10NU80-159" value="" style="html=1;points=[];perimeter=orthogonalPerimeter;fillColor=#000000;strokeColor=none;" vertex="1" parent="1">
          <mxGeometry x="900" y="665" width="5" height="80" as="geometry" />
        </mxCell>
        <mxCell id="02cLAiRu2KNLrM10NU80-174" style="edgeStyle=orthogonalEdgeStyle;rounded=0;orthogonalLoop=1;jettySize=auto;html=1;exitX=0.25;exitY=1;exitDx=0;exitDy=0;entryX=0.25;entryY=0;entryDx=0;entryDy=0;" edge="1" parent="1" source="02cLAiRu2KNLrM10NU80-165" target="02cLAiRu2KNLrM10NU80-170">
          <mxGeometry relative="1" as="geometry" />
        </mxCell>
        <mxCell id="02cLAiRu2KNLrM10NU80-165" value="Asistencia a juego" style="rounded=1;whiteSpace=wrap;html=1;arcSize=7;" vertex="1" parent="1">
          <mxGeometry x="730" y="826" width="120" height="60" as="geometry" />
        </mxCell>
        <mxCell id="02cLAiRu2KNLrM10NU80-185" style="edgeStyle=orthogonalEdgeStyle;rounded=0;orthogonalLoop=1;jettySize=auto;html=1;entryX=0.694;entryY=-0.038;entryDx=0;entryDy=0;entryPerimeter=0;" edge="1" parent="1" source="02cLAiRu2KNLrM10NU80-167" target="02cLAiRu2KNLrM10NU80-183">
          <mxGeometry relative="1" as="geometry" />
        </mxCell>
        <mxCell id="02cLAiRu2KNLrM10NU80-202" style="edgeStyle=orthogonalEdgeStyle;rounded=0;orthogonalLoop=1;jettySize=auto;html=1;exitX=0;exitY=1;exitDx=0;exitDy=0;entryX=1;entryY=0.75;entryDx=0;entryDy=0;" edge="1" parent="1" source="02cLAiRu2KNLrM10NU80-167" target="02cLAiRu2KNLrM10NU80-75">
          <mxGeometry relative="1" as="geometry" />
        </mxCell>
        <mxCell id="02cLAiRu2KNLrM10NU80-209" style="edgeStyle=orthogonalEdgeStyle;rounded=0;orthogonalLoop=1;jettySize=auto;html=1;exitX=0.75;exitY=0;exitDx=0;exitDy=0;entryX=0.5;entryY=1;entryDx=0;entryDy=0;" edge="1" parent="1" source="02cLAiRu2KNLrM10NU80-167" target="02cLAiRu2KNLrM10NU80-186">
          <mxGeometry relative="1" as="geometry" />
        </mxCell>
        <mxCell id="02cLAiRu2KNLrM10NU80-167" value="Administrador" style="rounded=1;whiteSpace=wrap;html=1;arcSize=0;" vertex="1" parent="1">
          <mxGeometry x="1010" y="390" width="120" height="60" as="geometry" />
        </mxCell>
        <mxCell id="02cLAiRu2KNLrM10NU80-169" value="Eliminar juego" style="rounded=1;whiteSpace=wrap;html=1;" vertex="1" parent="1">
          <mxGeometry x="740" y="910" width="100" height="30" as="geometry" />
        </mxCell>
        <mxCell id="02cLAiRu2KNLrM10NU80-175" style="edgeStyle=orthogonalEdgeStyle;rounded=0;orthogonalLoop=1;jettySize=auto;html=1;exitX=0.75;exitY=0;exitDx=0;exitDy=0;" edge="1" parent="1" source="02cLAiRu2KNLrM10NU80-170">
          <mxGeometry relative="1" as="geometry">
            <mxPoint x="815.2352941176473" y="890" as="targetPoint" />
          </mxGeometry>
        </mxCell>
        <mxCell id="02cLAiRu2KNLrM10NU80-170" value="Iniciar juego" style="rounded=1;whiteSpace=wrap;html=1;" vertex="1" parent="1">
          <mxGeometry x="740" y="910" width="100" height="30" as="geometry" />
        </mxCell>
        <mxCell id="02cLAiRu2KNLrM10NU80-191" style="edgeStyle=orthogonalEdgeStyle;rounded=0;orthogonalLoop=1;jettySize=auto;html=1;entryX=0.106;entryY=0.388;entryDx=0;entryDy=0;entryPerimeter=0;" edge="1" parent="1" source="02cLAiRu2KNLrM10NU80-177" target="02cLAiRu2KNLrM10NU80-188">
          <mxGeometry relative="1" as="geometry" />
        </mxCell>
        <mxCell id="02cLAiRu2KNLrM10NU80-177" value="Enrolar Usuario" style="rounded=1;whiteSpace=wrap;html=1;" vertex="1" parent="1">
          <mxGeometry x="1060" y="510" width="100" height="30" as="geometry" />
        </mxCell>
        <mxCell id="02cLAiRu2KNLrM10NU80-192" style="edgeStyle=orthogonalEdgeStyle;rounded=0;orthogonalLoop=1;jettySize=auto;html=1;entryX=0.106;entryY=0.653;entryDx=0;entryDy=0;entryPerimeter=0;" edge="1" parent="1" source="02cLAiRu2KNLrM10NU80-178" target="02cLAiRu2KNLrM10NU80-188">
          <mxGeometry relative="1" as="geometry" />
        </mxCell>
        <mxCell id="02cLAiRu2KNLrM10NU80-178" value="Crear Estadísticas" style="rounded=1;whiteSpace=wrap;html=1;" vertex="1" parent="1">
          <mxGeometry x="1060" y="580" width="100" height="50" as="geometry" />
        </mxCell>
        <mxCell id="02cLAiRu2KNLrM10NU80-182" value="" style="html=1;points=[];perimeter=orthogonalPerimeter;fillColor=#000000;strokeColor=none;" vertex="1" parent="1">
          <mxGeometry x="900" y="665" width="5" height="80" as="geometry" />
        </mxCell>
        <mxCell id="02cLAiRu2KNLrM10NU80-189" style="edgeStyle=orthogonalEdgeStyle;rounded=0;orthogonalLoop=1;jettySize=auto;html=1;entryX=0;entryY=0.25;entryDx=0;entryDy=0;" edge="1" parent="1" source="02cLAiRu2KNLrM10NU80-183" target="02cLAiRu2KNLrM10NU80-177">
          <mxGeometry relative="1" as="geometry" />
        </mxCell>
        <mxCell id="02cLAiRu2KNLrM10NU80-190" style="edgeStyle=orthogonalEdgeStyle;rounded=0;orthogonalLoop=1;jettySize=auto;html=1;entryX=0;entryY=0.5;entryDx=0;entryDy=0;" edge="1" parent="1" source="02cLAiRu2KNLrM10NU80-183" target="02cLAiRu2KNLrM10NU80-178">
          <mxGeometry relative="1" as="geometry" />
        </mxCell>
        <mxCell id="02cLAiRu2KNLrM10NU80-183" value="" style="html=1;points=[];perimeter=orthogonalPerimeter;fillColor=#000000;strokeColor=none;" vertex="1" parent="1">
          <mxGeometry x="1020" y="520" width="5" height="80" as="geometry" />
        </mxCell>
        <mxCell id="02cLAiRu2KNLrM10NU80-186" value="" style="ellipse;html=1;shape=endState;fillColor=#000000;strokeColor=#ff0000;" vertex="1" parent="1">
          <mxGeometry x="1150" y="295" width="30" height="30" as="geometry" />
        </mxCell>
        <mxCell id="02cLAiRu2KNLrM10NU80-194" style="edgeStyle=orthogonalEdgeStyle;rounded=0;orthogonalLoop=1;jettySize=auto;html=1;entryX=1;entryY=0.75;entryDx=0;entryDy=0;" edge="1" parent="1" source="02cLAiRu2KNLrM10NU80-188" target="02cLAiRu2KNLrM10NU80-167">
          <mxGeometry relative="1" as="geometry">
            <Array as="points">
              <mxPoint x="1213" y="435" />
            </Array>
          </mxGeometry>
        </mxCell>
        <mxCell id="02cLAiRu2KNLrM10NU80-188" value="" style="html=1;points=[];perimeter=orthogonalPerimeter;fillColor=#000000;strokeColor=none;" vertex="1" parent="1">
          <mxGeometry x="1210" y="520" width="5" height="80" as="geometry" />
        </mxCell>
        <mxCell id="02cLAiRu2KNLrM10NU80-200" value="" style="ellipse;html=1;shape=endState;fillColor=#000000;strokeColor=#ff0000;" vertex="1" parent="1">
          <mxGeometry x="80" y="530" width="30" height="30" as="geometry" />
        </mxCell>
        <mxCell id="02cLAiRu2KNLrM10NU80-201" value="" style="ellipse;html=1;shape=endState;fillColor=#000000;strokeColor=#ff0000;direction=south;" vertex="1" parent="1">
          <mxGeometry x="460" y="405" width="30" height="30" as="geometry" />
        </mxCell>
        <mxCell id="02cLAiRu2KNLrM10NU80-205" value="Cerrar sesión" style="text;html=1;align=center;verticalAlign=middle;resizable=0;points=[];autosize=1;strokeColor=none;fillColor=none;" vertex="1" parent="1">
          <mxGeometry x="330" y="413" width="90" height="20" as="geometry" />
        </mxCell>
        <mxCell id="02cLAiRu2KNLrM10NU80-206" value="Cerrar sesión" style="text;html=1;align=center;verticalAlign=middle;resizable=0;points=[];autosize=1;strokeColor=none;fillColor=none;" vertex="1" parent="1">
          <mxGeometry x="330" y="413" width="90" height="20" as="geometry" />
        </mxCell>
        <mxCell id="02cLAiRu2KNLrM10NU80-207" value="Cerrar sesión" style="text;html=1;align=center;verticalAlign=middle;resizable=0;points=[];autosize=1;strokeColor=none;fillColor=none;" vertex="1" parent="1">
          <mxGeometry x="90" y="490" width="90" height="20" as="geometry" />
        </mxCell>
        <mxCell id="02cLAiRu2KNLrM10NU80-208" value="Cerrar sesión" style="text;html=1;align=center;verticalAlign=middle;resizable=0;points=[];autosize=1;strokeColor=none;fillColor=none;" vertex="1" parent="1">
          <mxGeometry x="1060" y="325" width="90" height="20" as="geometry" />
        </mxCell>
      </root>
    </mxGraphModel>
  </diagram>
</mxfile>
